<?xml version="1.0" encoding="UTF-8" standalone="no"?>
<!-- Created with Inkscape (http://www.inkscape.org/) -->

<svg
   xmlns:dc="http://purl.org/dc/elements/1.1/"
   xmlns:cc="http://creativecommons.org/ns#"
   xmlns:rdf="http://www.w3.org/1999/02/22-rdf-syntax-ns#"
   xmlns:svg="http://www.w3.org/2000/svg"
   xmlns="http://www.w3.org/2000/svg"
   xmlns:sodipodi="http://sodipodi.sourceforge.net/DTD/sodipodi-0.dtd"
   xmlns:inkscape="http://www.inkscape.org/namespaces/inkscape"
   width="210mm"
   height="297mm"
   viewBox="0 0 744.09448819 1052.3622047"
   id="svg3429"
   version="1.1"
   inkscape:version="0.91 r13725"
   sodipodi:docname="microPIECE_logo.svg"
   inkscape:export-filename="/tmp/png2ascii/test.png"
   inkscape:export-xdpi="34.730732"
   inkscape:export-ydpi="34.730732">
  <defs
     id="defs3431" />
  <sodipodi:namedview
     id="base"
     pagecolor="#ffffff"
     bordercolor="#666666"
     borderopacity="1.0"
     inkscape:pageopacity="0.0"
     inkscape:pageshadow="2"
     inkscape:zoom="10.211648"
     inkscape:cx="326.86767"
     inkscape:cy="891.52212"
     inkscape:document-units="px"
     inkscape:current-layer="layer1"
     showgrid="false"
     inkscape:window-width="1920"
     inkscape:window-height="1151"
     inkscape:window-x="0"
     inkscape:window-y="25"
     inkscape:window-maximized="1" />
  <metadata
     id="metadata3434">
    <rdf:RDF>
      <cc:Work
         rdf:about="">
        <dc:format>image/svg+xml</dc:format>
        <dc:type
           rdf:resource="http://purl.org/dc/dcmitype/StillImage" />
        <dc:title></dc:title>
      </cc:Work>
    </rdf:RDF>
  </metadata>
  <g
     inkscape:label="Ebene 1"
     inkscape:groupmode="layer"
     id="layer1">
    <g
       id="g4153">
      <g
         id="g4150">
        <path
           style="fill:none;stroke:#000000;stroke-width:0.5;stroke-linecap:round;stroke-linejoin:round;stroke-miterlimit:4;stroke-dasharray:none;stroke-opacity:1"
           d="m 334.91016,127.40234 c -3.69695,3.5e-4 -6.69398,1.7183 -6.69532,3.83789 0.001,1.55762 1.64415,2.96039 4.15821,3.55079 l 0,1.33593 -15.14258,0 0,12.28516 -2.86719,0 c -1.13353,-2.35039 -3.51164,-3.84525 -6.12109,-3.84766 -3.75705,0 -6.80274,3.04569 -6.80274,6.80274 10e-6,3.75704 3.0457,6.80273 6.80274,6.80273 2.52892,-0.002 4.84814,-1.40623 6.02148,-3.64648 l 2.9668,0 0,10.93945 36.82812,0 0,-7.92578 c -0.74987,0.27645 -1.54259,0.41859 -2.34179,0.41992 -3.75704,0 -6.80273,-3.04569 -6.80274,-6.80273 0,-3.75705 3.04569,-6.80274 6.80274,-6.80274 0.79955,0.003 1.59228,0.14734 2.34179,0.42578 l 0,-8.65039 -16.35351,0 0,-1.40234 c 2.37539,-0.62528 3.89912,-1.98581 3.90234,-3.48438 -0.001,-2.12002 -2.99955,-3.83815 -6.69726,-3.83789 z"
           id="rect3443"
           inkscape:connector-curvature="0"
           sodipodi:nodetypes="ccccccccscccccccsccccccc" />
      </g>
    </g>
    <path
       inkscape:connector-curvature="0"
       id="path3439"
       d="m 327.64571,194.52784 c 0,-28.75 0,-28.75 0,-28.75"
       style="fill:none;fill-rule:evenodd;stroke:#000000;stroke-width:0.5;stroke-linecap:butt;stroke-linejoin:miter;stroke-miterlimit:4;stroke-dasharray:none;stroke-opacity:1" />
    <path
       style="fill:none;fill-rule:evenodd;stroke:#000000;stroke-width:0.5;stroke-linecap:butt;stroke-linejoin:miter;stroke-miterlimit:4;stroke-dasharray:none;stroke-opacity:1"
       d="m 343.64571,194.52784 c 0,-28.75 0,-28.75 0,-28.75"
       id="path3441"
       inkscape:connector-curvature="0" />
    <path
       style="fill:none;fill-rule:evenodd;stroke:#000000;stroke-width:0.5;stroke-linecap:butt;stroke-linejoin:miter;stroke-miterlimit:4;stroke-dasharray:none;stroke-opacity:1"
       d="m 327.4573,171.89375 c 15.40482,0 16.35184,0 16.35184,0"
       id="path4257"
       inkscape:connector-curvature="0" />
    <path
       inkscape:connector-curvature="0"
       id="path4268"
       d="m 327.4573,179.56044 c 15.40482,0 16.35184,0 16.35184,0"
       style="fill:none;fill-rule:evenodd;stroke:#000000;stroke-width:0.5;stroke-linecap:butt;stroke-linejoin:miter;stroke-miterlimit:4;stroke-dasharray:none;stroke-opacity:1" />
    <path
       style="fill:none;fill-rule:evenodd;stroke:#000000;stroke-width:0.5;stroke-linecap:butt;stroke-linejoin:miter;stroke-miterlimit:4;stroke-dasharray:none;stroke-opacity:1"
       d="m 327.4573,187.22706 c 15.40482,0 16.35184,0 16.35184,0"
       id="path4270"
       inkscape:connector-curvature="0" />
  </g>
</svg>
