<?xml version="1.0" encoding="UTF-8" standalone="no"?>
<!-- Created with Inkscape (http://www.inkscape.org/) -->

<svg
   xmlns:dc="http://purl.org/dc/elements/1.1/"
   xmlns:cc="http://creativecommons.org/ns#"
   xmlns:rdf="http://www.w3.org/1999/02/22-rdf-syntax-ns#"
   xmlns:svg="http://www.w3.org/2000/svg"
   xmlns="http://www.w3.org/2000/svg"
   xmlns:sodipodi="http://sodipodi.sourceforge.net/DTD/sodipodi-0.dtd"
   xmlns:inkscape="http://www.inkscape.org/namespaces/inkscape"
   width="16.991402mm"
   height="21.014864mm"
   viewBox="0 0 60.205754 74.462116"
   id="svg3429"
   version="1.1"
   inkscape:version="0.91 r13725"
   sodipodi:docname="microPIECE_logo.svg"
   inkscape:export-filename="/home/damsel/Schreibtisch/microPIECE_logo.png"
   inkscape:export-xdpi="999.63965"
   inkscape:export-ydpi="999.63965">
  <defs
     id="defs3431" />
  <sodipodi:namedview
     id="base"
     pagecolor="#ffffff"
     bordercolor="#666666"
     borderopacity="1.0"
     inkscape:pageopacity="0.0"
     inkscape:pageshadow="2"
     inkscape:zoom="7.2207255"
     inkscape:cx="65.314492"
     inkscape:cy="39.523361"
     inkscape:document-units="px"
     inkscape:current-layer="layer1"
     showgrid="false"
     inkscape:window-width="1920"
     inkscape:window-height="1176"
     inkscape:window-x="0"
     inkscape:window-y="24"
     inkscape:window-maximized="1"
     fit-margin-top="1"
     fit-margin-left="1"
     fit-margin-right="1"
     fit-margin-bottom="1" />
  <metadata
     id="metadata3434">
    <rdf:RDF>
      <cc:Work
         rdf:about="">
        <dc:format>image/svg+xml</dc:format>
        <dc:type
           rdf:resource="http://purl.org/dc/dcmitype/StillImage" />
        <dc:title></dc:title>
      </cc:Work>
    </rdf:RDF>
  </metadata>
  <g
     inkscape:label="Ebene 1"
     inkscape:groupmode="layer"
     id="layer1"
     transform="translate(-297.64614,-123.60903)">
    <g
       id="g3341">
      <g
         id="g4153">
        <g
           id="g4150">
          <path
             sodipodi:nodetypes="ccccccccscccccccsccccccc"
             inkscape:connector-curvature="0"
             id="rect3443"
             d="m 334.91016,127.40234 c -3.69695,3.5e-4 -6.69398,1.7183 -6.69532,3.83789 0.001,1.55762 1.64415,2.96039 4.15821,3.55079 l 0,1.33593 -15.14258,0 0,12.28516 -2.86719,0 c -1.13353,-2.35039 -3.51164,-3.84525 -6.12109,-3.84766 -3.75705,0 -6.80274,3.04569 -6.80274,6.80274 10e-6,3.75704 3.0457,6.80273 6.80274,6.80273 2.52892,-0.002 4.84814,-1.40623 6.02148,-3.64648 l 2.9668,0 0,10.93945 36.82812,3.1e-4 0,-7.92609 c -0.74987,0.27645 -1.54259,0.41859 -2.34179,0.41992 -3.75704,0 -6.80273,-3.04569 -6.80274,-6.80273 0,-3.75705 3.04569,-6.80274 6.80274,-6.80274 0.79955,0.003 1.59228,0.14734 2.34179,0.42578 l 0,-8.65039 -16.35351,0 0,-1.40234 c 2.37539,-0.62528 3.89912,-1.98581 3.90234,-3.48438 -10e-4,-2.12002 -2.99955,-3.83815 -6.69726,-3.83789 z"
             style="fill:none;stroke:#000000;stroke-width:0.5;stroke-linecap:round;stroke-linejoin:round;stroke-miterlimit:4;stroke-dasharray:none;stroke-opacity:1" />
        </g>
      </g>
      <path
         sodipodi:nodetypes="cc"
         style="fill:none;fill-rule:evenodd;stroke:#000000;stroke-width:0.5;stroke-linecap:butt;stroke-linejoin:miter;stroke-miterlimit:4;stroke-dasharray:none;stroke-opacity:1"
         d="m 327.64571,194.52784 0,-29.06464"
         id="path3439"
         inkscape:connector-curvature="0" />
      <path
         sodipodi:nodetypes="cc"
         inkscape:connector-curvature="0"
         id="path3441"
         d="m 343.64571,194.52784 0,-29.06464"
         style="fill:none;fill-rule:evenodd;stroke:#000000;stroke-width:0.5;stroke-linecap:butt;stroke-linejoin:miter;stroke-miterlimit:4;stroke-dasharray:none;stroke-opacity:1" />
      <path
         inkscape:connector-curvature="0"
         id="path4257"
         d="m 327.4573,171.89375 c 15.40482,0 16.35184,0 16.35184,0"
         style="fill:none;fill-rule:evenodd;stroke:#000000;stroke-width:0.5;stroke-linecap:butt;stroke-linejoin:miter;stroke-miterlimit:4;stroke-dasharray:none;stroke-opacity:1" />
      <path
         style="fill:none;fill-rule:evenodd;stroke:#000000;stroke-width:0.5;stroke-linecap:butt;stroke-linejoin:miter;stroke-miterlimit:4;stroke-dasharray:none;stroke-opacity:1"
         d="m 327.4573,179.56044 c 15.40482,0 16.35184,0 16.35184,0"
         id="path4268"
         inkscape:connector-curvature="0" />
      <path
         inkscape:connector-curvature="0"
         id="path4270"
         d="m 327.4573,187.22706 c 15.40482,0 16.35184,0 16.35184,0"
         style="fill:none;fill-rule:evenodd;stroke:#000000;stroke-width:0.5;stroke-linecap:butt;stroke-linejoin:miter;stroke-miterlimit:4;stroke-dasharray:none;stroke-opacity:1" />
    </g>
    <g
       style="font-style:normal;font-weight:normal;font-size:20px;line-height:179.99999523%;font-family:sans-serif;letter-spacing:0px;word-spacing:0px;fill:#000000;fill-opacity:1;stroke:none;stroke-width:1px;stroke-linecap:butt;stroke-linejoin:miter;stroke-opacity:1"
       id="text3351">
      <path
         d="m 324.51875,144.25128 0,-2.98 c 0,-0.87 -0.3,-1.4 -1.29,-1.4 -0.7,0 -1.13,0.44 -1.38,0.97 -0.13,-0.88 -0.81,-0.97 -1.26,-0.97 -0.89,0 -1.27,0.71 -1.4,1.02 l -0.01,-0.01 0,-0.53 c 0,-0.31 -0.06,-0.44 -0.44,-0.44 l -0.16,0 c -0.35,0 -0.45,0.09 -0.45,0.45 l 0,3.88 c 0,0.35 0.09,0.45 0.45,0.45 l 0.22,0 c 0.35,0 0.44,-0.1 0.44,-0.44 l 0,-2.39 c 0,-0.9 0.5,-1.35 0.99,-1.35 0.42,0 0.54,0.25 0.54,0.8 l 0,2.93 c 0,0.35 0.09,0.45 0.45,0.45 l 0.22,0 c 0.35,0 0.44,-0.1 0.44,-0.44 l 0,-2.39 c 0,-0.9 0.5,-1.35 0.99,-1.35 0.42,0 0.54,0.25 0.54,0.8 l 0,2.93 c 0,0.35 0.09,0.45 0.45,0.45 l 0.22,0 c 0.35,0 0.44,-0.1 0.44,-0.44 z"
         style="font-style:normal;font-variant:normal;font-weight:600;font-stretch:normal;font-size:10px;line-height:179.99999523%;font-family:'Latin Modern Sans Demi Cond';-inkscape-font-specification:'Latin Modern Sans Demi Cond Semi-Bold'"
         id="path3366" />
      <path
         d="m 326.67968,144.25128 0,-3.84 c 0,-0.31 -0.06,-0.44 -0.44,-0.44 l -0.19,0 c -0.35,0 -0.45,0.09 -0.45,0.45 l 0,3.82 c 0,0.35 0.09,0.45 0.45,0.45 l 0.19,0 c 0.35,0 0.44,-0.1 0.44,-0.44 z m 0.08,-5.64 0,-0.24 c 0,-0.38 -0.1,-0.47 -0.45,-0.47 l -0.33,0 c -0.34,0 -0.45,0.08 -0.45,0.47 l 0,0.24 c 0,0.36 0.09,0.47 0.45,0.47 l 0.33,0 c 0.35,0 0.45,-0.1 0.45,-0.47 z"
         style="font-style:normal;font-variant:normal;font-weight:600;font-stretch:normal;font-size:10px;line-height:179.99999523%;font-family:'Latin Modern Sans Demi Cond';-inkscape-font-specification:'Latin Modern Sans Demi Cond Semi-Bold'"
         id="path3368" />
      <path
         d="m 331.18718,144.07128 c 0,-0.07 -0.02,-0.28 -0.03,-0.36 -0.02,-0.23 -0.03,-0.28 -0.13,-0.28 -0.05,0 -0.07,0.01 -0.13,0.09 -0.13,0.13 -0.52,0.57 -1.26,0.57 -0.97,0 -0.97,-1.26 -0.97,-1.78 0,-0.73 0.05,-1.79 1,-1.79 0.55,0 0.79,0.14 1.11,0.39 0.09,0.09 0.11,0.09 0.14,0.09 0.09,0 0.1,-0.05 0.14,-0.28 0.01,-0.05 0.07,-0.34 0.07,-0.37 0,-0.09 -0.03,-0.1 -0.17,-0.18 -0.39,-0.23 -0.66,-0.35 -1.3,-0.35 -1.38,0 -2.1,0.92 -2.1,2.5 0,0.31 0,1.18 0.53,1.83 0.4,0.48 1.01,0.64 1.53,0.64 0.18,0 0.57,-0.02 0.97,-0.21 0,0 0.6,-0.3 0.6,-0.51 z"
         style="font-style:normal;font-variant:normal;font-weight:600;font-stretch:normal;font-size:10px;line-height:179.99999523%;font-family:'Latin Modern Sans Demi Cond';-inkscape-font-specification:'Latin Modern Sans Demi Cond Semi-Bold'"
         id="path3370" />
      <path
         d="m 334.52593,140.42128 0,-0.29 c 0,-0.21 0,-0.26 -0.16,-0.26 -0.44,0 -1.02,0.3 -1.31,1.14 l -0.01,0 0,-0.66 c 0,-0.31 -0.06,-0.44 -0.44,-0.44 l -0.14,0 c -0.35,0 -0.45,0.09 -0.45,0.45 l 0,3.88 c 0,0.35 0.09,0.45 0.45,0.45 l 0.19,0 c 0.35,0 0.44,-0.1 0.44,-0.44 l 0,-2.02 c 0,-0.92 0.56,-1.49 1.25,-1.55 0.17,-0.01 0.18,-0.02 0.18,-0.26 z"
         style="font-style:normal;font-variant:normal;font-weight:600;font-stretch:normal;font-size:10px;line-height:179.99999523%;font-family:'Latin Modern Sans Demi Cond';-inkscape-font-specification:'Latin Modern Sans Demi Cond Semi-Bold'"
         id="path3372" />
      <path
         d="m 339.13906,142.37128 c 0,-0.47 -0.05,-1.26 -0.52,-1.85 -0.43,-0.55 -1.08,-0.7 -1.59,-0.7 -0.55,0 -1.2,0.18 -1.6,0.72 -0.41,0.54 -0.51,1.21 -0.51,1.83 0,0.54 0.07,1.22 0.53,1.78 0.31,0.37 0.87,0.64 1.58,0.64 0.44,0 1.1,-0.11 1.55,-0.62 0.53,-0.59 0.56,-1.4 0.56,-1.8 z m -1.11,-0.12 c 0,0.67 0,1.84 -1,1.84 -1,0 -1,-1.17 -1,-1.84 0,-0.67 0,-1.79 1,-1.79 1,0 1,1.13 1,1.79 z"
         style="font-style:normal;font-variant:normal;font-weight:600;font-stretch:normal;font-size:10px;line-height:179.99999523%;font-family:'Latin Modern Sans Demi Cond';-inkscape-font-specification:'Latin Modern Sans Demi Cond Semi-Bold'"
         id="path3374" />
      <path
         d="m 323.12875,157.85128 c 0,-1.26 -0.73,-2.1 -2.22,-2.1 l -2.06,0 c -0.35,0 -0.45,0.09 -0.45,0.45 l 0,6.04 c 0,0.35 0.09,0.45 0.45,0.45 l 0.33,0 c 0.35,0 0.44,-0.1 0.44,-0.44 l 0,-2.34 1.38,0 c 0.96,0 2.13,-0.45 2.13,-2.06 z m -1.14,0.01 c 0,0.64 -0.1,1.36 -1.38,1.36 l -1.02,0 0,-2.72 1.02,0 c 1.26,0 1.38,0.69 1.38,1.36 z"
         style="font-style:normal;font-variant:normal;font-weight:600;font-stretch:normal;font-size:10px;line-height:179.99999523%;font-family:'Latin Modern Sans Demi Cond';-inkscape-font-specification:'Latin Modern Sans Demi Cond Semi-Bold'"
         id="path3376" />
      <path
         d="m 325.68296,162.25128 0,-6.06 c 0,-0.31 -0.06,-0.44 -0.44,-0.44 l -0.33,0 c -0.35,0 -0.45,0.09 -0.45,0.45 l 0,6.04 c 0,0.35 0.09,0.45 0.45,0.45 l 0.33,0 c 0.35,0 0.44,-0.1 0.44,-0.44 z"
         style="font-style:normal;font-variant:normal;font-weight:600;font-stretch:normal;font-size:10px;line-height:179.99999523%;font-family:'Latin Modern Sans Demi Cond';-inkscape-font-specification:'Latin Modern Sans Demi Cond Semi-Bold'"
         id="path3378" />
      <path
         d="m 331.755,162.25128 0,-0.08 c 0,-0.44 -0.19,-0.44 -0.5,-0.44 l -1.41,0.02 c -0.24,0 -1.14,0 -1.32,0.02 l 0,-2.26 2.4,0 c 0.2,0 0.44,0 0.44,-0.4 0,-0.41 -0.23,-0.41 -0.44,-0.41 l -2.4,0 0,-2.05 0.46,0 2.12,0.03 c 0.34,0 0.52,0 0.52,-0.45 0,-0.28 -0.03,-0.45 -0.44,-0.45 l -3.43,0 c -0.35,0 -0.45,0.09 -0.45,0.45 l 0,6.01 c 0,0.35 0.09,0.45 0.45,0.45 l 3.56,0 c 0.35,0 0.44,-0.1 0.44,-0.44 z"
         style="font-style:normal;font-variant:normal;font-weight:600;font-stretch:normal;font-size:10px;line-height:179.99999523%;font-family:'Latin Modern Sans Demi Cond';-inkscape-font-specification:'Latin Modern Sans Demi Cond Semi-Bold'"
         id="path3380" />
      <path
         d="m 337.73906,162.11128 -0.06,-0.64 c -0.01,-0.05 -0.05,-0.1 -0.11,-0.1 0,0 -0.05,0.01 -0.07,0.02 -0.24,0.18 -0.49,0.34 -0.77,0.43 -0.29,0.09 -0.59,0.11 -0.89,0.11 -0.56,0 -1.09,-0.24 -1.42,-0.69 -0.42,-0.58 -0.51,-1.31 -0.51,-2.02 0,-0.72 0.09,-1.45 0.51,-2.02 0.33,-0.45 0.86,-0.69 1.42,-0.69 0.27,0 0.53,0.03 0.78,0.11 0.25,0.08 0.48,0.22 0.69,0.37 0.02,0.02 0.04,0.03 0.07,0.03 0.05,0 0.1,-0.04 0.11,-0.1 l 0.14,-0.79 c 0,-0.07 -0.03,-0.11 -0.07,-0.13 -0.27,-0.11 -0.55,-0.21 -0.84,-0.27 -0.29,-0.06 -0.58,-0.08 -0.88,-0.08 -0.88,0 -1.75,0.28 -2.33,0.94 -0.63,0.71 -0.82,1.68 -0.82,2.63 0,0.95 0.19,1.92 0.82,2.63 0.58,0.66 1.45,0.94 2.33,0.94 0.33,0 0.66,-0.02 0.98,-0.12 0.31,-0.09 0.6,-0.27 0.87,-0.46 0.03,-0.02 0.05,-0.05 0.05,-0.1 z"
         style="font-style:normal;font-variant:normal;font-weight:600;font-stretch:normal;font-size:10px;line-height:179.99999523%;font-family:'Latin Modern Sans Demi Cond';-inkscape-font-specification:'Latin Modern Sans Demi Cond Semi-Bold'"
         id="path3382" />
      <path
         d="m 343.49328,162.25128 0,-0.08 c 0,-0.44 -0.19,-0.44 -0.5,-0.44 l -1.41,0.02 c -0.24,0 -1.14,0 -1.32,0.02 l 0,-2.26 2.4,0 c 0.2,0 0.44,0 0.44,-0.4 0,-0.41 -0.23,-0.41 -0.44,-0.41 l -2.4,0 0,-2.05 0.46,0 2.12,0.03 c 0.34,0 0.52,0 0.52,-0.45 0,-0.28 -0.03,-0.45 -0.44,-0.45 l -3.43,0 c -0.35,0 -0.45,0.09 -0.45,0.45 l 0,6.01 c 0,0.35 0.09,0.45 0.45,0.45 l 3.56,0 c 0.35,0 0.44,-0.1 0.44,-0.44 z"
         style="font-style:normal;font-variant:normal;font-weight:600;font-stretch:normal;font-size:10px;line-height:179.99999523%;font-family:'Latin Modern Sans Demi Cond';-inkscape-font-specification:'Latin Modern Sans Demi Cond Semi-Bold'"
         id="path3384" />
    </g>
  </g>
</svg>
